<?xml version="1.0" encoding="UTF-8"?>
<svg id="b" data-name="レイヤー 3" xmlns="http://www.w3.org/2000/svg" viewBox="0 0 48 48">
  <defs>
    <style>
      .c {
        fill: #f7b31e;
      }

      .d {
        fill: #006dbc;
      }

      .e {
        fill: #ed1c24;
      }

      .f {
        fill: #22b573;
      }

      .g {
        fill: #2e31b6;
      }
    </style>
  </defs>
  <path class="f" d="m37.85,24h-1.44l-12.43,12.43c-.21,3-2.64,5.4-5.65,5.55-.11.02-.22.02-.33.02h19.85c2.84,0,5.15-2.31,5.15-5.15v-7.7c0-2.85-2.31-5.15-5.15-5.15Z"/>
  <path class="c" d="m37.13,16l-5.45-5.45c-2.01-2.01-5.27-2.01-7.28,0l-.48.48c.05.31.08.64.08.97v12h12.41l.72-.72c2.01-2.01,2.01-5.27,0-7.28Zm-19.13,26h.31s.01,0,.02-.02c-.11.02-.22.02-.33.02Z"/>
  <path class="e" d="m6,28.98v6.76c-1.7-1.93-1.7-4.83,0-6.76Z"/>
  <path class="e" d="m18.31,42c-1.78,1.28-4.2,1.28-5.98,0h5.98Z"/>
  <path class="e" d="m36.41,24l-12.43,12.43c.01-.14.02-.28.02-.43v-12h12.41Z"/>
  <path class="d" d="m24,12v12h-11.85c-.49,0-.96.07-1.4.2-1.72.48-3.07,1.83-3.55,3.55l-.97.97c-.08.08-.16.17-.23.26V12c0-3.31,2.69-6,6-6h6c2.98,0,5.46,2.18,5.92,5.03.05.31.08.64.08.97Z"/>
  <path class="g" d="m12.15,24c-.49,0-.96.07-1.4.2-1.72.48-3.07,1.83-3.55,3.55l-.97.97c-.08.08-.16.17-.23.26v7.02c0,3.31,2.69,6,6,6h6c.11,0,.22,0,.33-.02,3.01-.15,5.44-2.55,5.65-5.55.01-.14.02-.28.02-.43v-12h-11.85Zm2.85,13c-1.66,0-3-1.34-3-3s1.34-3,3-3,3,1.34,3,3-1.34,3-3,3Z"/>
</svg>